HIERARCHY
ROOT Hip
{
	OFFSET 0 0 0
	CHANNELS 6 Xposition Yposition Zposition Zrotation Yrotation Xrotation
	JOINT ShoulderCenter
	{
		OFFSET 0 0.4363 0
		CHANNELS 3 Zrotation Yrotation Xrotation
		JOINT Head
		{
			OFFSET 0 0.1849 0
			CHANNELS 3 Zrotation Yrotation Xrotation
			End Site
			{
				OFFSET 0.0 0.0891 0.0
			}
		}
		JOINT ShoulderLeft
		{
			OFFSET -0.14 0 0
			CHANNELS 3 Zrotation Yrotation Xrotation
			JOINT ElbowLeft
			{
				OFFSET -0.25 0 0
				CHANNELS 3 Zrotation Yrotation Xrotation
				JOINT WristLeft
				{
					OFFSET -0.23 0 0
					CHANNELS 3 Zrotation Yrotation Xrotation
					End Site
					{
						OFFSET -0.0832 0.0 0.0
					}
				}
			}
		}
		JOINT ShoulderRight
		{
			OFFSET 0.14 0 0
			CHANNELS 3 Zrotation Yrotation Xrotation
			JOINT ElbowRight
			{
				OFFSET 0.25 0 0
				CHANNELS 3 Zrotation Yrotation Xrotation
				JOINT WristRight
				{
					OFFSET 0.23 0 0
					CHANNELS 3 Zrotation Yrotation Xrotation
					End Site
					{
						OFFSET 0.0832 0.0 0.0
					}
				}
			}
		}
	}
	JOINT HipLeft
	{
		OFFSET -0.0952 0 0
		CHANNELS 3 Zrotation Yrotation Xrotation
		JOINT KneeLeft
		{
			OFFSET 0 -0.3732 0
			CHANNELS 3 Zrotation Yrotation Xrotation
			JOINT AnkleLeft
			{
				OFFSET 0 -0.346 0
				CHANNELS 3 Zrotation Yrotation Xrotation
				End Site
				{
					OFFSET 0.0 0.0 0.0891
				}
			}
		}
	}
	JOINT HipRight
	{
		OFFSET 0.0952 0 0
		CHANNELS 3 Zrotation Yrotation Xrotation
		JOINT KneeRight
		{
			OFFSET 0 -0.3732 0
			CHANNELS 3 Zrotation Yrotation Xrotation
			JOINT AnkleRight
			{
				OFFSET 0 -0.346 0
				CHANNELS 3 Zrotation Yrotation Xrotation
				End Site
				{
					OFFSET 0.0 0.0 0.0891
				}
			}
		}
	}
}
MOTION
Frames: 32
Frame Time: 0.033333
0.00017421 -0.000999302 -0.00221671 -35.8148 -63.8099 -19.1762 13.8532 -16.0138 12.5095 0 0 0 154.63 54.6186 -23.9417 3.61385e-007 31.1507 -1.92383e-006 0 0 0 -169.327 -71.9814 -111.455 -180 -33.102 180 0 0 0 -3.69755 -11.8369 -27.0931 0.775891 -4.95805 -10.7879 0 0 0 -6.48274 -10.3028 -21.0877 2.4898 -6.9934 -14.6389 0 0 0 
0.00017421 -0.000999302 -0.00221636 -35.6774 -63.8925 -19.3462 13.8088 -15.8163 12.5664 0 0 0 154.553 54.6982 -24.1209 -2.9275e-006 31.0693 -2.69374e-006 0 0 0 -168.671 -71.8676 -111.997 180 -33.4007 180 0 0 0 -3.75257 -11.7827 -27.0428 0.827836 -4.98115 -10.894 0 0 0 -6.51682 -10.2193 -21.006 2.46337 -6.98897 -14.6753 0 0 0 
0.00017421 -0.000999302 -0.00221622 -35.4825 -64.1962 -19.6397 13.784 -15.5213 12.7155 0 0 0 154.578 54.1712 -25.901 -1.32758e-006 31.0329 -6.36936e-007 0 0 0 -167.301 -72.2016 -113.196 180 -33.7203 180 0 0 0 -3.69991 -11.5608 -26.9536 0.832628 -4.89469 -10.8928 0 0 0 -6.43208 -9.77062 -20.5089 2.28921 -7.04377 -14.9593 -2.43637e-006 3.0106e-007 1.17038e-008 
0.000174209 -0.000999302 -0.00221599 -35.2182 -64.1589 -20.0292 13.4628 -15.1552 12.7626 0 0 0 154.618 54.1913 -25.9251 4.31407e-007 31.2276 -1.67849e-006 -3.21786e-007 4.01842e-007 6.25248e-008 -165.79 -71.8489 -114.499 180 -34.3718 -180 0 0 0 -3.96034 -11.4277 -26.7562 0.901467 -4.86367 -10.9208 -2.35318e-006 3.01984e-007 -1.67943e-007 -6.63597 -9.62264 -20.3449 2.24466 -7.00192 -14.9599 -2.43685e-006 3.18302e-007 1.57125e-008 
0.000172716 -0.00100016 -0.00221585 -35.776 -63.4739 -19.7138 13.4381 -15.4565 12.9194 0 0 0 155.173 54.2918 -26.3526 -1.31401e-006 31.9343 -1.48884e-006 0 0 0 -164.916 -71.2053 -115.485 180 -34.7998 -180 0 0 0 -3.99844 -11.9146 -26.5885 0.902449 -5.09165 -10.872 0 0 0 -6.9871 -10.0311 -19.998 2.43698 -7.40902 -14.9977 0 0 0 
0.00017256 -0.00100016 -0.00221585 -35.8665 -63.2273 -19.7387 13.5358 -15.0307 12.7644 0 0 0 153.08 54.761 -25.0691 -3.34942e-006 30.9302 -5.08716e-007 0 0 0 -164.764 -70.4763 -115.876 -180 -35.1365 180 0 0 0 -4.13773 -11.7252 -26.3538 0.921286 -5.106 -10.9969 -2.3239e-006 3.31431e-007 -1.6245e-007 -7.50773 -10.1646 -19.9919 2.48622 -7.34532 -14.7359 0 0 0 
0.00017256 -0.00100016 -0.00221585 -35.8627 -63.252 -19.799 13.6216 -14.8401 12.8884 0 0 0 152.61 55.1335 -25.0275 -1.0011e-006 30.4227 -2.68443e-006 0 0 0 -164.464 -70.0797 -116 180 -35.6378 180 0 0 0 -4.09478 -11.7017 -26.3117 1.05775 -5.07396 -11.0154 0 0 0 -7.61709 -10.188 -19.9253 2.52249 -7.36536 -14.7206 0 0 0 
0.000171567 -0.00100016 -0.00221585 -35.7005 -63.4927 -20.0674 13.5818 -14.6106 13.1239 0 0 0 152.607 55.1707 -24.8676 -6.33967e-007 30.8795 -1.013e-006 0 0 0 -164.024 -70.0345 -115.989 180 -35.778 -180 0 0 0 -4.06215 -11.523 -26.2125 1.08822 -5.00152 -11.0175 0 0 0 -8.51889 -11.2564 -21.0658 2.96788 -7.19529 -14.0767 0 0 0 
0.000170402 -0.00100016 -0.00221591 -35.825 -63.4082 -20.066 13.4987 -14.7344 13.1878 0 0 0 152.219 55.1082 -24.2375 -9.76209e-007 31.0715 -1.23469e-006 -2.23094e-007 4.34882e-007 1.17488e-007 -163.463 -69.9998 -116.718 180 -36.3302 -180 0 0 0 -3.99859 -11.5531 -26.1082 1.00089 -5.0604 -11.0193 -2.30621e-006 3.24599e-007 -1.64657e-007 -8.62672 -11.4186 -21.1084 2.86595 -7.47473 -14.2954 0 0 0 
0.000168932 -0.00099955 -0.00221702 -34.8816 -64.9372 -21.0845 13.3824 -13.2502 13.9095 5.22457e-007 1.74051e-006 6.03759e-007 151.953 55.3623 -23.4237 -5.45455e-007 31.1064 -1.11108e-006 0 0 0 -163.901 -70.0019 -114.892 180 -36.0697 180 0 0 0 -3.25485 -10.7092 -26.0654 0.920027 -4.68628 -11.0018 -2.30452e-006 2.70565e-007 -1.66665e-007 -7.86962 -10.5995 -20.8895 2.85424 -7.16324 -14.6828 -2.5547e-006 2.47342e-007 -1.33775e-007 
0.000168653 -0.00099955 -0.00221713 -34.8182 -65.0961 -21.2037 13.5383 -12.9027 14.1391 5.29022e-007 1.76187e-006 6.18559e-007 149.456 56.5236 -22.6494 -2.35701e-006 29.4445 -3.27401e-006 0 0 0 -164.623 -69.6825 -114.405 180 -36.4325 -180 -4.64568e-007 1.07502e-006 -5.81608e-007 -3.21145 -10.5905 -26.0152 0.939868 -4.63467 -11.0033 0 0 0 -7.73479 -10.3706 -20.6413 2.9918 -6.91425 -14.5031 0 0 0 
0.000167654 -0.00100119 -0.00221599 -36.1001 -63.2424 -20.0704 13.6251 -14.5996 14.0519 5.29511e-007 1.78168e-006 6.52846e-007 149.203 56.5519 -24.3443 6.3164e-007 31.3271 -5.81806e-007 0 0 0 -165.018 -69.4043 -113.919 180 -36.3436 -180 0 0 0 -4.13902 -11.2418 -25.4584 0.897352 -5.11204 -11.1121 0 0 0 -7.86597 -10.4444 -20.1122 2.89443 -7.37805 -14.7901 -2.45379e-006 3.49479e-007 -5.2542e-008 
0.000167654 -0.00100102 -0.00221599 -36.6312 -62.6409 -19.6051 13.7945 -15.0233 13.9476 0 0 0 149.435 56.5594 -24.2806 4.38013e-007 31.6199 -7.81381e-007 0 0 0 -164.449 -68.9532 -114.371 180 -36.5262 180 0 0 0 -4.5382 -11.0101 -25.1485 0.718701 -5.189 -11.2678 0 0 0 -8.17566 -10.2417 -19.9587 2.66663 -7.38045 -14.8017 0 0 0 
0.000167654 -0.00100059 -0.00221599 -37.0098 -62.4089 -19.2635 14.4066 -14.8276 14.0804 0 0 0 148.741 57.2669 -24.9049 3.06379e-006 34.2083 -8.78674e-007 -2.40393e-007 7.35951e-007 1.62604e-007 -163.756 -68.0708 -113.057 180 -37.8941 -180 0 0 0 -4.50551 -11.2722 -25.4186 0.824451 -5.14932 -11.1 -2.29599e-006 4.51493e-007 -1.21216e-007 -8.17072 -10.2803 -19.8674 2.63168 -7.49522 -14.8532 -2.45368e-006 4.46662e-007 -2.99362e-008 
0.000167742 -0.00100059 -0.00221567 -37.0971 -62.2526 -19.1849 14.6206 -14.6195 14.0707 0 0 0 148.598 57.8262 -22.5637 1.28335e-006 34.052 -1.45216e-006 0 0 0 -164.262 -67.6835 -112.658 180 -38.1781 -180 0 0 0 -4.54479 -11.4184 -25.3993 0.84893 -5.2195 -11.1042 0 0 0 -8.52109 -10.4849 -19.7244 2.80344 -7.66538 -14.8838 0 0 0 
0.00016803 -0.00100102 -0.0022151 -36.8648 -62.2793 -19.3632 14.4881 -14.5454 14.1093 0 0 0 148.765 57.8768 -22.1395 -1.06347e-006 34.0525 -1.31796e-006 0 0 0 -164.272 -67.6803 -112.687 -180 -38.3242 180 0 0 0 -4.66131 -11.2442 -25.1317 0.85471 -5.19914 -11.1297 0 0 0 -8.9839 -10.7615 -19.9164 2.99885 -7.62333 -14.7146 0 0 0 
0.000168553 -0.00100102 -0.00221509 -36.9452 -62.1718 -19.2449 14.4438 -14.6243 14.0827 0 0 0 149.289 57.7478 -22.329 -1.88648e-006 34.2728 -2.90798e-006 0 0 0 -164.324 -67.6269 -113.943 180 -38.2089 -180 0 0 0 -4.56893 -11.3014 -25.2129 0.784192 -5.22071 -11.1091 -2.29168e-006 4.52905e-007 -9.46792e-008 -9.1812 -10.946 -20.0349 2.79677 -7.83666 -14.7464 0 0 0 
0.000172597 -0.00100206 -0.00221421 -37.4641 -60.9667 -18.411 14.4281 -16.8157 13.4474 0 0 0 147.99 58.1189 -21.2221 -8.53785e-007 30.6017 -1.01715e-006 -9.70382e-008 6.66165e-007 7.13891e-008 -165.159 -68.7024 -113.416 180 -38.0945 -180 0 0 0 -4.89283 -11.9459 -25.4629 0.645882 -5.51462 -11.0881 0 0 0 -9.61964 -11.9986 -20.9266 2.81935 -8.16527 -14.5404 -2.53704e-006 4.48575e-007 -1.17585e-007 
0.000172954 -0.00100206 -0.0022138 -37.1408 -61.2566 -18.7042 14.1917 -16.1922 13.6636 0 0 0 147.576 58.1585 -20.9997 -3.79527e-007 28.1955 -2.99494e-007 0 0 0 -166.116 -68.4601 -112.865 180 -37.8878 180 0 0 0 -4.9211 -11.7352 -25.5311 0.630112 -5.37388 -11.0351 -2.29606e-006 4.88555e-007 -8.61479e-008 -9.62475 -11.8439 -20.9937 2.97547 -7.95473 -14.5497 0 0 0 
0.000172954 -0.00100206 -0.0022138 -37.0481 -61.181 -18.6111 13.969 -16.0978 13.2554 0 0 0 145.921 62.6065 -22.7203 -2.1119 19.1615 -0.349894 0 0 0 -169.494 -68.8501 -109.633 -180 -36.6371 180 0 0 0 -4.94805 -11.8161 -25.7044 0.720839 -5.35996 -11.0504 -2.28779e-006 4.87542e-007 -8.6669e-008 -9.71317 -11.9829 -21.1598 3.11736 -7.90972 -14.5141 -2.51734e-006 4.48603e-007 -1.14857e-007 
0.000172893 -0.00100001 -0.00221421 -37.9086 -60.0422 -17.8607 14.0313 -16.4736 12.6093 0 0 0 144.524 62.2656 -24.5225 -1.80728 19.4448 -0.389191 0 0 0 -169.029 -68.0649 -109.866 180 -34.9682 180 0 0 0 -5.6274 -11.8151 -25.8736 0.626819 -5.29157 -10.9349 -2.27498e-006 6.28292e-007 -8.54058e-008 -10.249 -11.4783 -20.6984 2.65551 -7.97421 -14.6168 -2.513e-006 6.06404e-007 -6.94997e-008 
0.000172597 -0.000999316 -0.00221436 -37.8033 -60.0776 -18.0805 13.8063 -15.843 12.776 0 0 0 143.825 62.1287 -25.5468 -1.42813 19.5283 -0.391835 0 0 0 -171.423 -67.8761 -108.947 180 -32.9134 -180 0 0 0 -5.77706 -11.804 -25.7652 0.771115 -5.35065 -11.0943 -2.27056e-006 6.25003e-007 -1.04181e-007 -10.2799 -11.2732 -20.3838 2.76759 -7.96551 -14.7365 0 0 0 
0.000170999 -0.000997542 -0.00221436 -39.5453 -57.6021 -16.8084 13.5391 -17.4597 12.5463 0 0 0 145.496 59.3831 -30.3926 1.12408e-007 23.7181 -3.66142e-007 0 0 0 -169.795 -68.1246 -110.202 180 -32.9434 180 0 0 0 -7.30433 -11.6823 -24.741 0.470823 -5.57718 -11.066 0 0 0 -11.3576 -10.485 -19.0267 1.9353 -8.29495 -14.7623 0 0 0 
0.000170186 -0.000997491 -0.00221436 -39.6209 -57.7802 -16.8929 12.9462 -17.0642 12.65 0 0 0 144.832 59.6323 -30.4617 -1.20653e-006 22.907 -1.94526e-006 -2.40422e-007 1.96653e-007 -1.16209e-007 -168.397 -67.859 -111.707 180 -33.1771 -180 0 0 0 -7.38975 -11.9154 -24.8575 0.456329 -5.63192 -10.9927 0 0 0 -11.2427 -10.3666 -18.7402 2.04696 -8.38646 -14.9346 0 0 0 
0.000170186 -0.000997482 -0.00221404 -40.1101 -57.7687 -16.5311 13.3202 -16.9085 12.5864 0 0 0 146.849 56.5837 -26.3515 -2.35923e-006 29.3994 -1.94291e-006 0 0 0 -161.798 -66.019 -117.999 180 -30.4465 180 -2.91834e-007 3.63226e-007 -3.86401e-007 -7.23161 -11.8731 -24.6986 0.483776 -5.68584 -11.0784 0 0 0 -11.0412 -10.3114 -18.621 2.03989 -8.37623 -14.9051 0 0 0 
0.00017016 -0.000997482 -0.00221322 -40.1007 -58.1697 -16.604 13.3665 -16.496 12.5013 0 0 0 147.564 56.2001 -26.4976 -2.07897e-006 30.205 -3.0755e-006 0 0 0 -161.363 -65.8377 -118.551 180 -30.3495 -180 0 0 0 -7.01055 -11.5625 -24.4511 0.441783 -5.633 -11.1456 0 0 0 -11.1333 -10.2563 -18.4861 2.17514 -8.35173 -14.9447 -5.66169e-007 -8.72359e-007 1.44116e-006 
0.000170186 -0.000997542 -0.00221322 -40.0478 -58.401 -16.7148 13.2853 -16.1501 12.6726 0 0 0 147.565 56.3349 -26.7892 -3.94493e-006 30.2554 -3.98818e-006 0 0 0 -161.646 -65.7953 -118.152 180 -30.2136 -180 0 0 0 -6.82445 -11.5555 -24.3565 0.502479 -5.63072 -11.1426 -2.29818e-006 8.35709e-007 -3.78495e-008 -11.0064 -10.3666 -18.5545 2.27672 -8.3912 -14.9757 -5.73894e-007 -9.146e-007 1.42802e-006 
0.000170271 -0.000997819 -0.00221322 -40.0188 -58.5423 -16.7942 13.0012 -16.4518 12.7451 3.87341e-007 2.03334e-006 5.5927e-007 147.786 56.5874 -26.6927 -3.61658e-007 29.7708 -1.53543e-006 0 0 0 -161.253 -66.2622 -119.171 180 -30.7721 180 0 0 0 -6.72896 -11.505 -24.2925 0.506685 -5.6389 -11.1806 0 0 0 -10.9376 -10.3676 -18.5446 2.3126 -8.36479 -14.9543 -5.75423e-007 -9.28844e-007 1.42854e-006 
0.000170423 -0.000998365 -0.00221327 -40.2759 -58.3318 -16.6598 13.0824 -16.7184 12.801 0 0 0 147.613 56.5295 -26.4164 1.52872e-006 30.5296 -4.15882e-007 -1.89606e-007 4.68158e-007 7.05799e-009 -161.507 -66.306 -118.974 180 -30.7939 -180 -2.65162e-007 4.26688e-007 -3.12411e-007 -6.83346 -11.3607 -24.1058 0.392967 -5.63958 -11.1792 0 0 0 -10.9738 -10.3068 -18.5639 2.18306 -8.34803 -14.9319 0 0 0 
0.000170492 -0.000999226 -0.00221349 -40.2318 -58.6194 -16.7363 12.993 -16.6235 12.8747 0 0 0 147.388 56.2455 -25.5598 3.75863e-006 30.8361 2.57267e-006 -1.71118e-007 4.86506e-007 7.47906e-008 -161.203 -66.4549 -119.237 180 -30.9977 -180 0 0 0 -6.62477 -11.3944 -23.9235 0.446739 -5.90258 -11.5699 0 0 0 -10.552 -10.4495 -18.7474 2.23949 -8.31802 -14.866 0 0 0 
0.000170535 -0.000999229 -0.00221388 -40.5132 -58.4101 -16.5232 13.0025 -17.0439 12.7971 3.79662e-007 1.99867e-006 5.49727e-007 142.339 52.9688 -16.5091 -6.92626e-007 34.023 -3.25084e-006 0 0 0 -161.172 -66.5666 -119.316 180 -30.9177 180 -2.74164e-007 4.46847e-007 -3.03795e-007 -6.63302 -11.4308 -23.8359 0.32602 -5.91232 -11.4486 0 0 0 -10.3194 -10.4486 -18.8169 2.12578 -8.29727 -14.8042 0 0 0 
0.000171606 -0.000999898 -0.0022146 -40.3954 -58.7587 -16.5307 12.9572 -16.6294 12.6324 0 0 0 142.223 52.8982 -16.411 -2.308e-006 34.1103 -7.43793e-007 0 0 0 -160.753 -66.4464 -119.646 180 -30.4227 -180 0 0 0 -6.60971 -11.1438 -23.9768 0.375164 -5.7026 -11.4372 0 0 0 -9.6175 -9.57222 -18.3845 1.86678 -7.93205 -14.9617 0 0 0 
